<?xml version="1.0" encoding="utf-8"?>
<!-- Generator: Adobe Illustrator 18.1.1, SVG Export Plug-In . SVG Version: 6.00 Build 0)  -->
<!DOCTYPE svg PUBLIC "-//W3C//DTD SVG 1.1//EN" "http://www.w3.org/Graphics/SVG/1.1/DTD/svg11.dtd">
<svg version="1.1" id="Layer_1" xmlns="http://www.w3.org/2000/svg" xmlns:xlink="http://www.w3.org/1999/xlink" x="0px" y="0px"
	 viewBox="0 0 156 162" enable-background="new 0 0 156 162" xml:space="preserve">
<path fill="#C7C6C8" d="M155,51.9v58.2c0,5.8-3.1,11.2-8.1,14.1l-60.7,35c-2.5,1.5-5.3,2.2-8.1,2.2c-2.8,0-5.6-0.7-8.1-2.2l-60.7-35
	c-5-2.9-8.1-8.3-8.1-14.1V51.9c0-5.8,3.1-11.2,8.1-14.1l60.7-35c5-2.9,11.2-2.9,16.3,0l60.7,35C151.9,40.7,155,46.1,155,51.9z
	 M78,17.6C43,17.6,14.6,46,14.6,81c0,35,28.4,63.4,63.4,63.4c35,0,63.4-28.4,63.4-63.4C141.4,46,113,17.6,78,17.6z"/>
<g>
	<path fill="#C7C6C8" d="M56.9,52.2V35.9h3.4c1.1,0,2,0.2,2.6,0.7c1,0.7,1.5,1.9,1.5,3.6c0,1-0.2,1.9-0.6,2.5
		c-0.2,0.4-0.6,0.8-1.1,1.1c0.5,0.3,0.9,0.6,1.2,0.9c0.5,0.8,0.8,1.8,0.8,3.1c0,1.6-0.4,2.8-1.2,3.6c-0.4,0.4-0.9,0.6-1.4,0.7
		c-0.4,0.1-0.9,0.1-1.5,0.1H56.9z M59.4,42.6h0.5c0.7,0,1.2-0.1,1.4-0.4c0.4-0.4,0.7-1.1,0.7-2c0-1.4-0.6-2-1.7-2h-0.9V42.6z
		 M59.4,49.9h0.9c0.7,0,1.1-0.2,1.4-0.5c0.4-0.4,0.5-1,0.5-1.9c0-1.1-0.3-1.9-0.8-2.3c-0.3-0.2-0.8-0.4-1.5-0.4h-0.6V49.9z"/>
	<path fill="#C7C6C8" d="M69.2,45.4v6.8h-2.5V35.9h3.4c1.3,0,2.3,0.3,2.9,0.9c0.8,0.8,1.2,2.1,1.2,3.8c0,1.2-0.2,2.2-0.6,2.9
		c-0.2,0.4-0.6,0.9-1.1,1.2l1.9,7.5h-2.6l-1.5-6.8H69.2z M69.2,43.1H70c0.5,0,0.9-0.1,1.1-0.2c0.5-0.3,0.7-1.1,0.7-2.3
		c0-1-0.2-1.6-0.5-2c-0.1-0.1-0.2-0.2-0.4-0.3c-0.2-0.1-0.5-0.1-1-0.1h-0.8V43.1z"/>
	<path fill="#C7C6C8" d="M81.5,48.6h-2.7l-0.6,3.6h-2.4l2.7-16.4h3.2l2.8,16.4h-2.5L81.5,48.6z M81.1,46.3l-1-6.5l-0.9,6.5H81.1z"/>
	<path fill="#C7C6C8" d="M88.7,35.9v16.4h-2.5V35.9H88.7z"/>
	<path fill="#C7C6C8" d="M99,52.2h-2.3l-3.5-10.1v10.1h-2.3V35.9h2.5l3.3,9.7v-9.7H99V52.2z"/>
	<path fill="#C7C6C8" d="M46.9,70v6.8h-2.5V60.4h3.5c1,0,1.7,0.1,2.2,0.3c0.8,0.3,1.4,1,1.7,1.9c0.2,0.6,0.3,1.5,0.3,2.6
		c0,1.3-0.2,2.3-0.5,3c-0.4,0.9-1,1.4-1.9,1.7C49.3,70,48.7,70,47.9,70H46.9z M46.9,67.7h0.8c0.8,0,1.3-0.2,1.5-0.5
		c0.2-0.2,0.3-0.5,0.4-0.9c0-0.3,0.1-0.7,0.1-1.2c0-0.7-0.1-1.2-0.2-1.5c-0.2-0.4-0.4-0.7-0.8-0.9c-0.2-0.1-0.6-0.1-1-0.1h-0.8V67.7
		z"/>
	<path fill="#C7C6C8" d="M61.6,65.7v5.7c0,1.5-0.1,2.6-0.3,3.2c-0.3,0.9-0.9,1.5-1.7,1.9C59,76.9,58.4,77,57.7,77
		c-1.2,0-2.2-0.4-2.9-1.3c-0.5-0.6-0.8-1.2-0.9-1.9c-0.1-0.6-0.1-1.4-0.1-2.4v-5.7c0-1.5,0.1-2.6,0.3-3.2c0.3-0.9,0.9-1.5,1.7-1.9
		c0.6-0.3,1.2-0.5,1.9-0.5c1.2,0,2.2,0.4,2.9,1.3c0.5,0.6,0.8,1.2,0.8,1.9C61.5,64,61.6,64.8,61.6,65.7z M56.4,66v5.2
		c0,1.4,0.1,2.3,0.2,2.6c0.2,0.6,0.6,0.9,1.2,0.9c0.7,0,1.1-0.4,1.3-1.1c0.1-0.3,0.1-1.1,0.1-2.5V66c0-1.4-0.1-2.3-0.2-2.6
		c-0.2-0.6-0.6-0.9-1.2-0.9c-0.7,0-1.1,0.4-1.3,1.1C56.4,63.8,56.4,64.7,56.4,66z"/>
	<path fill="#C7C6C8" d="M73.1,76.8H71l-1.7-9.9l-1.6,9.9h-2.1l-2.5-16.4h2.5l1.2,9.8l1.5-9.8h2l1.6,9.8l1.3-9.8h2.4L73.1,76.8z"/>
	<path fill="#C7C6C8" d="M83.9,60.4v2.3h-4.2v4.4h3v2.3h-3v5h4.2v2.3h-6.7V60.4H83.9z"/>
	<path fill="#C7C6C8" d="M88.2,69.9v6.8h-2.5V60.4h3.4c1.3,0,2.3,0.3,2.9,0.9c0.8,0.8,1.2,2.1,1.2,3.8c0,1.2-0.2,2.2-0.6,2.9
		c-0.2,0.4-0.6,0.9-1.1,1.2l1.9,7.5H91l-1.5-6.8H88.2z M88.2,67.7H89c0.5,0,0.9-0.1,1.1-0.2c0.5-0.3,0.7-1.1,0.7-2.3
		c0-1-0.2-1.6-0.5-2c-0.1-0.1-0.2-0.2-0.4-0.3c-0.2-0.1-0.5-0.1-1-0.1h-0.8V67.7z"/>
	<path fill="#C7C6C8" d="M102,60.4v2.3h-4.2v4.4h3v2.3h-3v5h4.2v2.3h-6.7V60.4H102z"/>
	<path fill="#C7C6C8" d="M103.9,76.8V60.4h3.5c1.4,0,2.4,0.4,3.1,1.1c0.7,0.8,1.1,1.9,1.1,3.5v7.1c0,1.6-0.4,2.8-1.1,3.5
		c-0.7,0.7-1.7,1.1-3.1,1.1H103.9z M106.4,74.5h0.8c0.7,0,1.2-0.2,1.5-0.6c0.2-0.3,0.3-0.6,0.4-1c0-0.3,0-0.7,0-1.2v-6.2
		c0-0.8,0-1.3-0.1-1.6c-0.2-0.8-0.8-1.2-1.8-1.2h-0.8V74.5z"/>
	<path fill="#C7C6C8" d="M52.9,90.4h-2.5c0-0.2,0-0.3,0-0.4c0-1.1-0.1-1.8-0.2-2.1C50.1,87.3,49.6,87,49,87c-0.7,0-1.1,0.4-1.3,1.1
		c-0.1,0.3-0.1,1.1-0.1,2.5v5.2c0,1.4,0.1,2.3,0.2,2.6c0.2,0.6,0.6,0.9,1.2,0.9c0.5,0,0.9-0.2,1.1-0.6c0.1-0.3,0.2-0.6,0.3-1.1
		c0-0.6,0-1.3,0-2h2.5v0.9c0,1-0.1,1.7-0.2,2.1c-0.2,1-0.7,1.7-1.4,2.2c-0.6,0.5-1.4,0.7-2.3,0.7c-1.2,0-2.2-0.4-2.9-1.3
		c-0.5-0.6-0.8-1.2-0.9-1.9c-0.1-0.6-0.1-1.4-0.1-2.4v-5.5c0-1.6,0.1-2.7,0.3-3.3c0.3-0.9,0.9-1.5,1.7-1.9c0.6-0.3,1.2-0.5,1.9-0.5
		c1,0,1.9,0.3,2.6,0.9c0.6,0.6,1,1.3,1.2,2.2c0.1,0.3,0.1,0.9,0.1,1.7V90.4z"/>
	<path fill="#C7C6C8" d="M57.3,94.5v6.8h-2.5V85h3.4c1.3,0,2.3,0.3,2.9,0.9c0.8,0.8,1.2,2.1,1.2,3.8c0,1.2-0.2,2.2-0.6,2.9
		c-0.2,0.4-0.6,0.9-1.1,1.2l1.9,7.5H60l-1.5-6.8H57.3z M57.3,92.2H58c0.5,0,0.9-0.1,1.1-0.2c0.5-0.3,0.7-1.1,0.7-2.3
		c0-1-0.2-1.6-0.5-2c-0.1-0.1-0.2-0.2-0.4-0.3c-0.2-0.1-0.5-0.1-1-0.1h-0.8V92.2z"/>
	<path fill="#C7C6C8" d="M71,85v2.3h-4.2v4.4h3V94h-3v5H71v2.3h-6.7V85H71z"/>
	<path fill="#C7C6C8" d="M78.1,97.7h-2.7l-0.6,3.6h-2.4L75.1,85h3.2l2.8,16.4h-2.5L78.1,97.7z M77.7,95.4l-1-6.5l-0.9,6.5H77.7z"/>
	<path fill="#C7C6C8" d="M86.4,87.3v14.1H84V87.3h-2.6V85h7.7v2.3H86.4z"/>
	<path fill="#C7C6C8" d="M92.8,85v16.4h-2.5V85H92.8z"/>
	<path fill="#C7C6C8" d="M100,101.3h-2.6L94.3,85h2.5l1.9,10.5l1.7-10.5h2.4L100,101.3z"/>
	<path fill="#C7C6C8" d="M111,85v2.3h-4.2v4.4h3V94h-3v5h4.2v2.3h-6.7V85H111z"/>
	<path fill="#C7C6C8" d="M71.5,109.5v2.3h-4.1v4.4h3v2.3h-3v7.3h-2.5v-16.4H71.5z"/>
	<path fill="#C7C6C8" d="M78.3,109.5h2.5v11c0,1.5-0.1,2.6-0.3,3.2c-0.3,0.9-0.9,1.5-1.7,1.9c-0.6,0.3-1.2,0.5-1.9,0.5
		c-1.2,0-2.2-0.4-2.9-1.3c-0.5-0.6-0.8-1.2-0.9-1.9c-0.1-0.6-0.1-1.4-0.1-2.4v-11h2.5v10.8c0,1.4,0.1,2.3,0.2,2.6
		c0.2,0.6,0.6,0.9,1.2,0.9c0.7,0,1.1-0.4,1.3-1.1c0.1-0.3,0.1-1.1,0.1-2.5V109.5z"/>
	<path fill="#C7C6C8" d="M91,125.9h-2.3l-3.5-10.1v10.1h-2.3v-16.4h2.5l3.3,9.7v-9.7H91V125.9z"/>
</g>
</svg>
