<?xml version="1.0" encoding="utf-8"?>
<!-- Generator: Adobe Illustrator 24.1.0, SVG Export Plug-In . SVG Version: 6.00 Build 0)  -->
<svg version="1.1" id="Layer_1" xmlns="http://www.w3.org/2000/svg" xmlns:xlink="http://www.w3.org/1999/xlink" x="0px" y="0px"
	 viewBox="0 0 131.69 165.21" style="enable-background:new 0 0 131.69 165.21;" xml:space="preserve">
<style type="text/css">
	.st0{fill:#333333;}
</style>
<path class="st0" d="M91.23,0.49c0,1.76,0,3.53,0,5.29c0,15.76-0.02,31.53,0.01,47.29c0.01,5.84,1.49,7.4,6.82,5.08
	c10.01-4.36,17.27-1.38,25.01,5.49c6.04,5.36,9.25,10.58,8.52,18.7c-0.62,6.91,0.25,13.96-0.28,20.89
	c-0.28,3.61-1.51,7.49-3.43,10.56c-3.95,6.32-8.34,12.43-13.15,18.12c-2.44,2.88-5.88,5.57-9.41,6.75
	c-9.28,3.1-18.84,5.35-28.31,7.88c-5.14,1.37-6.28,0.51-6.28-4.81c-0.02-36.01-0.04-72.02,0.05-108.03
	c0.01-2.42,0.23-5.24,1.45-7.19C77.81,17.54,83.78,8.81,89.62,0C90.16,0.16,90.69,0.33,91.23,0.49z M91.25,100.76
	c0,4.8-0.29,9.62,0.17,14.38c0.14,1.5,2.49,4.15,3.46,3.99c4.54-0.74,9.11-1.9,13.32-3.72c1.64-0.71,3.25-3.52,3.32-5.43
	c0.34-9.42,0.18-18.85,0.14-28.28c-0.01-3.5-1.96-4.75-5.23-3.97c-3.38,0.81-6.73,1.75-10.08,2.69c-3.49,0.98-5.18,3.3-5.13,6.95
	C91.28,91.83,91.24,96.29,91.25,100.76z"/>
<path class="st0" d="M20.62,133.18c-0.01-0.09-0.03-0.19-0.04-0.28c-0.01-0.2,0-0.39,0.02-0.58c-0.26-4.21-0.06-8.47-0.06-12.7
	c-0.01-4.47,0.03-8.93-0.02-13.4c-0.01-0.5,0.09-0.96,0.08-1.41c-0.08-5.63-0.08-9.08-0.08-13.63c0-5,0-10-0.17-15.08
	c-0.02-0.62-0.02-1.42,0.17-1.92c-0.09-0.72,0.01-1.3,0.01-2.25c-0.03-15.76-0.01-31.53-0.01-47.29v-0.93
	c-2.08-0.63-1.94-0.59-4.02-1.22C11.45,30.08,6.34,37.63,1.52,45.36c-1.22,1.95-1.44,4.77-1.45,7.19
	c-0.09,35.44-0.07,70.87-0.05,106.31c0,4.51,3.57,7.24,7.93,6.09c3.73-0.99,7.47-1.95,11.2-2.94c0.54-0.14,0.92-0.6,0.99-1.15
	c0.06-0.4,0.15-0.79,0.3-1.17c0.12-0.31,0.12-0.65,0-0.96c-0.31-0.82-0.41-1.72-0.32-2.59c0.15-1.4,0.1-2.8-0.01-4.21
	c-0.07-0.85,0.05-1.73,0.36-2.52c0.07-0.19,0.1-0.39,0.09-0.59c-0.03-0.31-0.02-0.62,0.01-0.94c-0.06-0.3-0.09-0.6-0.09-0.92
	l0.05-0.34c-0.13-0.59-0.25-1.15-0.19-1.71c0.05-0.51,0.07-1.01,0-1.51c-0.09-0.61-0.02-1.28,0.1-1.93
	c0.16-0.82,0.18-1.65,0.12-2.48c-0.02-0.35,0-0.7,0.03-1.04c-0.02-0.14-0.04-0.28-0.06-0.41c-0.01-0.25,0.01-0.49,0.05-0.73
	c-0.03-0.34-0.02-0.69,0.02-1.03c-0.01-0.15-0.02-0.3-0.01-0.46c-0.01-0.18,0-0.35,0.01-0.52
	C20.54,134.27,20.53,133.73,20.62,133.18C20.62,133.19,20.62,133.19,20.62,133.18z"/>
<path class="st0" d="M20.47,146.98c0.02-0.14,0.04-0.28,0.06-0.42v-8.99c0,0,0,0,0-0.01c0-0.01,0-0.03,0-0.04v-10.05
	c0-1.26-1.02-2.29-2.29-2.29h-1.43c-1.26,0-2.29,1.02-2.29,2.29v32.43c0,1.26,1.02,2.29,2.29,2.29h1.43c1.26,0,2.29-1.02,2.29-2.29
	V147.7C20.49,147.47,20.47,147.22,20.47,146.98z"/>
<path class="st0" d="M20.47,146.98c0.02-0.14,0.04-0.28,0.06-0.42v-8.99c0,0,0,0,0-0.01c0-0.01,0-0.03,0-0.04V73.17h-2v87h2V147.7
	C20.49,147.47,20.47,147.22,20.47,146.98z"/>
<path class="st0" d="M35.45,130.92c0.37-1.27,0.74-2.54,1.09-3.83c0.16-0.6,0.41-1.36,0.73-1.78c0.13-0.72,0.4-1.24,0.68-2.14
	c4.67-15.06,9.39-30.1,14.09-45.15l0.19-0.6c0.06-0.19,0.06-0.41,0-0.6c-0.59-1.77-1.39-1.8-2.74-1.97
	c-0.41-0.05-0.84,0.07-1.16,0.33c-6.92,5.59-13.87,11.15-20.61,16.95c-1.74,1.5-2.8,4.12-3.53,6.43c-2.76,8.75-5.49,17.5-8.23,26.25
	L35.45,130.92z"/>
<path class="st0" d="M15.93,123.03c1.22,0.52,2.43,1.05,3.65,1.59c0.57,0.25,1.31,0.55,1.84,0.57c0.64,0.35,1.21,0.48,2.09,0.84
	c14.59,5.97,29.2,11.9,43.8,17.84l2.36,0.96c0.13,0.31,1.36,0.69-0.08,2.92c-0.14,0.21-0.36,0.36-0.61,0.41
	c-9.34,1.9-18.66,3.89-28.04,5.5c-2.27,0.39-4.96-0.46-7.21-1.37c-8.5-3.44-17-6.89-25.5-10.34L15.93,123.03z"/>
<path class="st0" d="M66.31,116.71c0.28,1.89,0.45,3.78,0.38,5.68c-0.03,0.91-0.64,1.71-1.51,2c-0.03,0.01-0.06,0.02-0.09,0.03
	c-6.61,2.24-13.22,4.5-19.84,6.71c-2.31,0.77-2.89,0.33-3.08-2.1c-0.08-1.01-0.11-2.01-0.16-3.02c-0.19-3.56-0.01-3.82,3.42-4.99
	c5.66-1.92,11.31-3.83,16.97-5.75c0.36-0.12,0.69-0.23,1.01-0.34C64.73,114.5,66.11,115.35,66.31,116.71z"/>
</svg>
